
    <svg width="28" height="28" viewBox="0 0 28 28" fill="none" xmlns="http://www.w3.org/2000/svg">
<path d="M14.749 4.44536C15.218 4.15369 15.792 4.10236 16.2983 4.29486L16.464 4.36836L25.1486 8.75619C25.5156 8.94292 25.8056 9.25231 25.9682 9.63061C26.1309 10.0089 26.1558 10.4322 26.0388 10.827C25.5838 12.3799 25.634 13.032 25.9315 13.7682C26.2115 14.4624 26.0481 15.3339 25.3948 15.846L25.2466 15.951L13.2486 23.5449C12.7458 23.8634 12.1053 23.9124 11.5488 23.6405L7.06879 21.4297L5.19745 20.4905L3.86745 19.8115L3.05545 19.3857L2.63545 19.157L2.33095 18.982C1.14095 18.2645 0.769952 16.8062 0.776952 15.692C0.781619 14.5592 1.17129 13.144 2.25279 12.367L2.60279 12.1255L3.60379 11.471L5.98962 9.94736L14.749 4.44536ZM23.3718 12.4697L13.2533 18.8747C13.1716 18.9272 13.0853 18.9715 12.9978 19.0089C12.8695 19.4849 12.8251 19.8267 12.8298 20.144C12.8321 20.3342 12.8531 20.5267 12.894 20.7472L12.943 20.977L23.6156 14.222C23.4631 13.7525 23.3806 13.2631 23.3706 12.7695L23.3718 12.4697ZM3.26662 14.7914C3.16129 15.0831 3.10837 15.3912 3.11029 15.7014C3.10679 16.4854 3.38679 16.8949 3.53612 16.9847L3.89545 17.1889L4.62579 17.5774L6.69079 18.6309L10.5116 20.5337C10.5023 20.4161 10.4968 20.2982 10.4953 20.1802C10.4922 19.6288 10.5628 19.0795 10.7053 18.5469L3.26662 14.7902V14.7914ZM22.6998 10.134L15.7056 6.59903L7.81895 11.5504L5.25462 13.1825L12.285 16.7292L22.6998 10.134ZM14.7163 8.55903C14.8489 8.30561 15.07 8.10975 15.3376 8.00866C15.6052 7.90757 15.9005 7.90829 16.1676 8.01069L16.2913 8.06669L18.7413 9.35003C19.0061 9.48751 19.2082 9.72125 19.306 10.0032C19.4038 10.2851 19.3898 10.5938 19.267 10.8657C19.1442 11.1376 18.9218 11.3522 18.6457 11.4652C18.3695 11.5782 18.0605 11.5812 17.7823 11.4734L17.6586 11.4174L15.2086 10.134C15.0729 10.063 14.9524 9.96583 14.8542 9.84821C14.756 9.73059 14.6819 9.59477 14.6362 9.44851C14.5905 9.30226 14.574 9.14842 14.5878 8.9958C14.6015 8.84318 14.6452 8.69477 14.7163 8.55903Z" fill="#888888"/>
</svg>



